<svg data-v-423bf9ae="" xmlns="http://www.w3.org/2000/svg" viewBox="0 0 340.86587784610595 60" class="font"><!----><!----><!----><g data-v-423bf9ae="" id="f6fa9914-4e5c-4b90-a5ee-c03f0b0d3ff9" fill="white" transform="matrix(6.335797075835233,0,0,6.335797075835233,-1.583944847895566,-34.53009237800747)"><path d="M2.62 8.18L0.52 8.18Q0.42 8.02 0.34 7.76Q0.25 7.49 0.25 7.20L0.25 7.20Q0.25 6.65 0.50 6.41Q0.74 6.17 1.13 6.17L1.13 6.17L7.24 6.17Q7.34 6.33 7.42 6.59Q7.50 6.86 7.50 7.15L7.50 7.15Q7.50 7.70 7.26 7.94Q7.01 8.18 6.62 8.18L6.62 8.18L5.07 8.18L5.07 14.64Q4.91 14.69 4.58 14.73Q4.26 14.77 3.93 14.77L3.93 14.77Q3.61 14.77 3.37 14.72Q3.12 14.67 2.95 14.55Q2.79 14.42 2.70 14.20Q2.62 13.97 2.62 13.61L2.62 13.61L2.62 8.18ZM15.55 11.30L15.55 11.30Q15.55 12.17 15.29 12.85Q15.02 13.52 14.54 13.99Q14.06 14.45 13.38 14.69Q12.71 14.92 11.89 14.92L11.89 14.92Q11.06 14.92 10.39 14.67Q9.72 14.42 9.23 13.95Q8.75 13.48 8.48 12.81Q8.22 12.14 8.22 11.30L8.22 11.30Q8.22 10.47 8.48 9.80Q8.75 9.13 9.23 8.66Q9.72 8.19 10.39 7.94Q11.06 7.69 11.89 7.69L11.89 7.69Q12.71 7.69 13.38 7.95Q14.06 8.20 14.54 8.67Q15.02 9.14 15.29 9.81Q15.55 10.49 15.55 11.30ZM10.65 11.30L10.65 11.30Q10.65 12.15 10.98 12.61Q11.31 13.06 11.90 13.06L11.90 13.06Q12.49 13.06 12.80 12.60Q13.12 12.14 13.12 11.30L13.12 11.30Q13.12 10.46 12.80 10.00Q12.47 9.55 11.89 9.55L11.89 9.55Q11.30 9.55 10.98 10.00Q10.65 10.46 10.65 11.30ZM16.42 11.30L16.42 11.30Q16.42 10.37 16.70 9.70Q16.98 9.02 17.48 8.57Q17.98 8.12 18.64 7.90Q19.31 7.69 20.08 7.69L20.08 7.69Q20.36 7.69 20.62 7.74Q20.89 7.78 21.06 7.85L21.06 7.85L21.06 5.59Q21.20 5.54 21.50 5.50Q21.81 5.45 22.13 5.45L22.13 5.45Q22.44 5.45 22.69 5.49Q22.93 5.53 23.10 5.66Q23.27 5.78 23.35 6.00Q23.44 6.22 23.44 6.57L23.44 6.57L23.44 13.20Q23.44 13.86 22.82 14.25L22.82 14.25Q22.41 14.52 21.77 14.72Q21.13 14.92 20.29 14.92L20.29 14.92Q19.38 14.92 18.66 14.67Q17.93 14.42 17.44 13.94Q16.94 13.47 16.68 12.80Q16.42 12.14 16.42 11.30ZM20.40 9.55L20.40 9.55Q19.64 9.55 19.24 9.98Q18.83 10.42 18.83 11.30L18.83 11.30Q18.83 12.17 19.21 12.61Q19.59 13.05 20.30 13.05L20.30 13.05Q20.55 13.05 20.75 12.97Q20.96 12.89 21.07 12.80L21.07 12.80L21.07 9.72Q20.79 9.55 20.40 9.55ZM31.96 11.30L31.96 11.30Q31.96 12.17 31.70 12.85Q31.43 13.52 30.95 13.99Q30.46 14.45 29.79 14.69Q29.12 14.92 28.29 14.92L28.29 14.92Q27.47 14.92 26.80 14.67Q26.12 14.42 25.64 13.95Q25.16 13.48 24.89 12.81Q24.63 12.14 24.63 11.30L24.63 11.30Q24.63 10.47 24.89 9.80Q25.16 9.13 25.64 8.66Q26.12 8.19 26.80 7.94Q27.47 7.69 28.29 7.69L28.29 7.69Q29.12 7.69 29.79 7.95Q30.46 8.20 30.95 8.67Q31.43 9.14 31.70 9.81Q31.96 10.49 31.96 11.30ZM27.06 11.30L27.06 11.30Q27.06 12.15 27.39 12.61Q27.72 13.06 28.31 13.06L28.31 13.06Q28.90 13.06 29.21 12.60Q29.53 12.14 29.53 11.30L29.53 11.30Q29.53 10.46 29.20 10.00Q28.88 9.55 28.29 9.55L28.29 9.55Q27.71 9.55 27.38 10.00Q27.06 10.46 27.06 11.30ZM35.74 10.15L36.48 10.15Q37.07 10.15 37.39 9.88Q37.70 9.60 37.70 9.04L37.70 9.04Q37.70 8.51 37.37 8.23Q37.04 7.94 36.41 7.94L36.41 7.94Q36.19 7.94 36.04 7.95Q35.90 7.95 35.74 7.98L35.74 7.98L35.74 10.15ZM35.76 12.07L35.76 14.64Q35.60 14.69 35.27 14.73Q34.94 14.77 34.62 14.77L34.62 14.77Q34.30 14.77 34.05 14.72Q33.81 14.67 33.64 14.55Q33.47 14.42 33.39 14.20Q33.31 13.97 33.31 13.61L33.31 13.61L33.31 7.01Q33.31 6.72 33.47 6.56Q33.63 6.40 33.91 6.30L33.91 6.30Q34.38 6.13 34.99 6.06Q35.60 5.98 36.22 5.98L36.22 5.98Q38.15 5.98 39.17 6.80Q40.19 7.63 40.19 9.04L40.19 9.04Q40.19 9.73 39.98 10.28Q39.76 10.84 39.33 11.24Q38.91 11.63 38.26 11.85Q37.60 12.07 36.75 12.07L36.75 12.07L35.76 12.07ZM43.64 9.91L43.64 14.69Q43.50 14.73 43.20 14.77Q42.90 14.81 42.57 14.81L42.57 14.81Q42.27 14.81 42.02 14.77Q41.78 14.73 41.61 14.60Q41.44 14.48 41.35 14.26Q41.26 14.04 41.26 13.69L41.26 13.69L41.26 9.49Q41.26 9.17 41.38 8.94Q41.50 8.71 41.72 8.53L41.72 8.53Q41.94 8.34 42.27 8.20Q42.60 8.05 42.98 7.94Q43.36 7.83 43.76 7.76Q44.17 7.70 44.58 7.70L44.58 7.70Q45.25 7.70 45.64 7.96Q46.03 8.22 46.03 8.81L46.03 8.81Q46.03 9.00 45.98 9.19Q45.92 9.38 45.84 9.53L45.84 9.53Q45.54 9.53 45.23 9.56Q44.93 9.59 44.63 9.65Q44.34 9.70 44.08 9.77Q43.82 9.83 43.64 9.91L43.64 9.91ZM54.05 11.30L54.05 11.30Q54.05 12.17 53.79 12.85Q53.52 13.52 53.04 13.99Q52.56 14.45 51.88 14.69Q51.21 14.92 50.39 14.92L50.39 14.92Q49.56 14.92 48.89 14.67Q48.22 14.42 47.73 13.95Q47.25 13.48 46.98 12.81Q46.72 12.14 46.72 11.30L46.72 11.30Q46.72 10.47 46.98 9.80Q47.25 9.13 47.73 8.66Q48.22 8.19 48.89 7.94Q49.56 7.69 50.39 7.69L50.39 7.69Q51.21 7.69 51.88 7.95Q52.56 8.20 53.04 8.67Q53.52 9.14 53.79 9.81Q54.05 10.49 54.05 11.30ZM49.15 11.30L49.15 11.30Q49.15 12.15 49.48 12.61Q49.81 13.06 50.40 13.06L50.40 13.06Q50.99 13.06 51.30 12.60Q51.62 12.14 51.62 11.30L51.62 11.30Q51.62 10.46 51.30 10.00Q50.97 9.55 50.39 9.55L50.39 9.55Q49.80 9.55 49.48 10.00Q49.15 10.46 49.15 11.30Z"></path></g><!----><!----></svg>